<?xml version="1.0" encoding="UTF-8"?>
<svg version="1.1" xmlns="http://www.w3.org/2000/svg" width="40" height="40">
<path d="M0 0 C2.97 0.33 5.94 0.66 9 1 C9.33 0.67 9.66 0.34 10 0 C12.67058851 -0.14115161 15.32432238 -0.04247107 18 0 C18.33 0.99 18.66 1.98 19 3 C22.45084111 4.28560747 25.30816047 5.01441332 29 4.9375 C32.95927912 5.01998498 35.44472145 6.2934663 39 8 C39 10.97 39 13.94 39 17 C26.77758615 24.3785079 13.84093867 24.26114979 0 24 C0 16.08 0 8.16 0 0 Z " fill="#596907" transform="translate(0,7)"/>
<path d="M0 0 C0.5775 0.165 1.155 0.33 1.75 0.5 C4.26664369 1.14462031 4.26664369 1.14462031 8 1 C13.33333333 1 18.66666667 1 24 1 C23.34 2.65 22.68 4.3 22 6 C20.1746875 5.9690625 20.1746875 5.9690625 18.3125 5.9375 C15.07317459 5.93176668 12.16354103 6.25563741 9 7 C8.34 7 7.68 7 7 7 C6.01 7.495 6.01 7.495 5 8 C2.99199544 7.71887936 0.98985949 7.38932033 -1 7 C-0.67 4.69 -0.34 2.38 0 0 Z " fill="#DADCCC" transform="translate(14,17)"/>
<path d="M0 0 C3.33333333 0 6.66666667 0 10 0 C9.34 1.65 8.68 3.3 8 5 C5.98177083 4.96744792 3.96354167 4.93489583 1.9453125 4.90234375 C-0.08185404 4.87350758 -0.08185404 4.87350758 -2 6 C-1.49396008 3.83125748 -1.00016187 2.00032373 0 0 Z " fill="#E9EAE2" transform="translate(28,18)"/>
<path d="M0 0 C1.65 0 3.3 0 5 0 C5.66 1.98 6.32 3.96 7 6 C5.0085944 6.38133299 3.00720923 6.71325582 1 7 C0 6 0 6 -0.0625 2.9375 C-0.041875 1.968125 -0.02125 0.99875 0 0 Z " fill="#85857F" transform="translate(9,8)"/>
<path d="M0 0 C1.98 0.495 1.98 0.495 4 1 C5.125 4.75 5.125 4.75 4 7 C2.35 7 0.7 7 -1 7 C-0.67 4.69 -0.34 2.38 0 0 Z " fill="#F3F3EE" transform="translate(14,17)"/>
<path d="M0 0 C0.33 0 0.66 0 1 0 C1.08096803 1.45742463 1.13917774 2.91612807 1.1875 4.375 C1.22230469 5.18710937 1.25710937 5.99921875 1.29296875 6.8359375 C1.19628906 7.55007812 1.09960938 8.26421875 1 9 C-2 11 -2 11 -6 11 C-5.67 10.01 -5.34 9.02 -5 8 C-4.01 7.67 -3.02 7.34 -2 7 C-0.77030122 3.48809191 -0.77030122 3.48809191 0 0 Z " fill="#48510C" transform="translate(38,15)"/>
</svg>
