<?xml version="1.0" encoding="UTF-8"?>
<svg version="1.1" xmlns="http://www.w3.org/2000/svg" width="130" height="56">
<path d="M0 0 C0.67224609 -0.01160156 1.34449219 -0.02320312 2.03710938 -0.03515625 C4.92143506 -0.0179706 6.94706495 0.03707829 9.359375 1.69921875 C10.92598569 4.13427667 11.12181344 6.53382098 11.4375 9.375 C12.530625 9.478125 13.62375 9.58125 14.75 9.6875 C18.1956233 10.09855681 21.31430066 10.90836765 24.625 11.9375 C30.07314872 13.52241599 35.04672368 13.54956764 40.6875 13.28515625 C43.4375 13.375 43.4375 13.375 46.4375 15.375 C48.96845121 15.93697108 51.50030247 16.32212597 54.0625 16.71484375 C56.80004795 17.47577402 57.67910467 18.17801463 59.4375 20.375 C60.10875513 23.48834523 59.99288003 26.63462101 60 29.8125 C60.03673828 30.67166016 60.07347656 31.53082031 60.11132812 32.41601562 C60.12852364 34.87879603 60.04694741 36.98759661 59.4375 39.375 C56.16659448 42.39036603 53.24352321 43.74980884 48.875 44.375 C44.74694215 45.14814796 42.63749781 46.60743432 39.4375 49.375 C34.81732918 51.52391666 30.78976291 51.49847728 25.8046875 51.25 C23.4596243 51.20181259 23.4596243 51.20181259 21.73095703 52.31298828 C11.07511065 57.2473008 -4.06921642 55.62070084 -15.5625 55.5 C-21.1725 55.45875 -26.7825 55.4175 -32.5625 55.375 C-32.5625 37.555 -32.5625 19.735 -32.5625 1.375 C-16.5625 2.375 -16.5625 2.375 -11.5625 3.375 C-10.95535156 2.90835937 -10.34820313 2.44171875 -9.72265625 1.9609375 C-6.54018208 -0.37556253 -3.89229515 -0.02282871 0 0 Z " fill="#596A03" transform="translate(32.5625,-0.375)"/>
<path d="M0 0 C1.50559539 1.96382007 2.89131683 3.78263366 4 6 C4.99 4.35 5.98 2.7 7 1 C7.99 1.33 8.98 1.66 10 2 C10.33 3.65 10.66 5.3 11 7 C11.45375 6.175 11.9075 5.35 12.375 4.5 C12.91125 3.675 13.4475 2.85 14 2 C14.66 2 15.32 2 16 2 C16.495 4.97 16.495 4.97 17 8 C17.61875 7.01 18.2375 6.02 18.875 5 C19.926875 3.515 19.926875 3.515 21 2 C21.66 2 22.32 2 23 2 C23.495 3.485 23.495 3.485 24 5 C24.433125 4.34 24.86625 3.68 25.3125 3 C25.869375 2.34 26.42625 1.68 27 1 C27.99 1 28.98 1 30 1 C31.71140469 2.96185416 33.37873325 4.96302383 35 7 C35.66 7.33 36.32 7.66 37 8 C37.33 6.68 37.66 5.36 38 4 C39.65 3.67 41.3 3.34 43 3 C42.39339875 10.40053524 42.39339875 10.40053524 40.6875 13 C39 14 39 14 35 14 C34.505 13.01 34.505 13.01 34 12 C31.13275314 12.57344937 30.1385485 12.8614515 28 15 C25.375 14.625 25.375 14.625 23 14 C23 14.66 23 15.32 23 16 C22.01 16 21.02 16 20 16 C19.505 14.02 19.505 14.02 19 12 C18.34 12 17.68 12 17 12 C17 13.98 17 15.96 17 18 C16.01 18 15.02 18 14 18 C13.34 16.68 12.68 15.36 12 14 C10.35 15.65 8.7 17.3 7 19 C6.67 17.02 6.34 15.04 6 13 C5.7628125 13.64453125 5.525625 14.2890625 5.28125 14.953125 C4 17 4 17 1.90625 17.609375 C1.1121875 17.65578125 0.318125 17.7021875 -0.5 17.75 C-1.2940625 17.80671875 -2.088125 17.8634375 -2.90625 17.921875 C-4.27013267 17.97276614 -5.6351682 18 -7 18 C-7 17.34 -7 16.68 -7 16 C-7.556875 16.33 -8.11375 16.66 -8.6875 17 C-11.30284522 18.1309601 -13.1806646 18.15662974 -16 18 C-17.73371087 14.53257826 -17.36117471 11.28720987 -16.328125 7.60546875 C-15.58798345 5.38853533 -14.81741921 3.18951574 -14 1 C-13.01 1.33 -12.02 1.66 -11 2 C-11 3.65 -11 5.3 -11 7 C-10.34 7 -9.68 7 -9 7 C-8.67 5.02 -8.34 3.04 -8 1 C-6.62437146 2.28965176 -5.29233607 3.62689293 -4 5 C-4 5.66 -4 6.32 -4 7 C-1.49962266 4.82575883 -0.56371414 3.26954202 0 0 Z " fill="#F5F5F2" transform="translate(47,23)"/>
<path d="M0 0 C3.4375 0.8125 3.4375 0.8125 5.875 3.375 C7.59950854 7.16891879 7.76700287 9.69371418 7.4375 13.8125 C8.7575 14.1425 10.0775 14.4725 11.4375 14.8125 C1.46751364 19.87662005 1.46751364 19.87662005 -4.5625 18.8125 C-7.43043591 16.31224818 -8.3960028 14.66348569 -9.125 10.9375 C-8.09156876 5.19621532 -5.84053085 1.33205089 0 0 Z " fill="#E9E9E4" transform="translate(28.5625,-0.8125)"/>
<path d="M0 0 C0.99 0.33 1.98 0.66 3 1 C3.33 2.65 3.66 4.3 4 6 C4.45375 5.175 4.9075 4.35 5.375 3.5 C5.91125 2.675 6.4475 1.85 7 1 C7.66 1 8.32 1 9 1 C9 3.64 9 6.28 9 9 C8.34 9 7.68 9 7 9 C6.773125 9.556875 6.54625 10.11375 6.3125 10.6875 C4.64103234 13.63246684 2.44723648 15.68156544 0 18 C-0.33 16.02 -0.66 14.04 -1 12 C-1.66 13.32 -2.32 14.64 -3 16 C-3.66 15.34 -4.32 14.68 -5 14 C-4.79999637 7.99989099 -3.65525569 4.71645896 0 0 Z " fill="#ECECE7" transform="translate(54,24)"/>
<path d="M0 0 C3.057952 1.73559438 5.63379989 3.38472619 8 6 C8.33 4.68 8.66 3.36 9 2 C10.65 1.67 12.3 1.34 14 1 C13.39339875 8.40053524 13.39339875 8.40053524 11.6875 11 C10 12 10 12 6 12 C5.67 11.34 5.34 10.68 5 10 C2.13275314 10.57344937 1.1385485 10.8614515 -1 13 C-1.99 12.67 -2.98 12.34 -4 12 C-2.66666667 8 -1.33333333 4 0 0 Z " fill="#F6F6F3" transform="translate(76,25)"/>
<path d="M0 0 C3.625 0.25 3.625 0.25 5.5 1.375 C7.02930823 3.92384706 7.29970941 6.32238473 7.625 9.25 C10.265 9.58 12.905 9.91 15.625 10.25 C15.625 10.58 15.625 10.91 15.625 11.25 C12.655 10.92 9.685 10.59 6.625 10.25 C6.295 11.57 5.965 12.89 5.625 14.25 C2.655 13.755 2.655 13.755 -0.375 13.25 C-0.49617188 12.63511719 -0.61734375 12.02023437 -0.7421875 11.38671875 C-0.90976562 10.57847656 -1.07734375 9.77023437 -1.25 8.9375 C-1.41242187 8.13699219 -1.57484375 7.33648437 -1.7421875 6.51171875 C-2.31978999 3.99698882 -2.31978999 3.99698882 -4.375 1.25 C-3.375 0.25 -3.375 0.25 0 0 Z " fill="#4E5A03" transform="translate(36.375,-0.25)"/>
<path d="M0 0 C2.375 0.75 2.375 0.75 3.375 1.75 C3.73397436 8.21153846 3.73397436 8.21153846 1.375 11.75 C-1.625 12.125 -1.625 12.125 -4.625 11.75 C-6.625 8.75 -6.625 8.75 -6.4375 5.75 C-5.32401027 1.63865332 -4.52729701 -0.43117114 0 0 Z " fill="#121210" transform="translate(29.625,3.25)"/>
<path d="M0 0 C3.375 -0.5625 3.375 -0.5625 7 0 C10.16648136 3.32886502 10.95370555 5.28243595 11.25 9.875 C11.1675 10.90625 11.085 11.9375 11 13 C12.32 13.33 13.64 13.66 15 14 C13.02 14.33 11.04 14.66 9 15 C8.87625 14.484375 8.7525 13.96875 8.625 13.4375 C7.81358372 10.27297649 6.9054087 7.13875015 6 4 C2.44219804 4.60990891 -0.6828589 5.5783681 -4 7 C-2.79618552 4.50638429 -1.54571278 2.31856917 0 0 Z " fill="#DEDDD6" transform="translate(25,0)"/>
<path d="M0 0 C0.99 0.33 1.98 0.66 3 1 C2.525625 2.051875 2.05125 3.10375 1.5625 4.1875 C0.30676259 7.10175851 -0.52234381 9.84746914 -1 13 C-1.33 13 -1.66 13 -2 13 C-2 3.625 -2 3.625 0 0 Z M-6 1 C-5.34 1 -4.68 1 -4 1 C-3.67 2.65 -3.34 4.3 -3 6 C-3.66 6 -4.32 6 -5 6 C-5.66 7.32 -6.32 8.64 -7 10 C-7.625 6.625 -7.625 6.625 -8 3 C-7.34 2.34 -6.68 1.68 -6 1 Z " fill="#E0DFD8" transform="translate(74,24)"/>
<path d="M0 0 C0.66 0.33 1.32 0.66 2 1 C2.05422947 2.4370809 2.09289723 3.87475462 2.125 5.3125 C2.14820313 6.11300781 2.17140625 6.91351563 2.1953125 7.73828125 C2 10 2 10 0 13 C-0.99 13 -1.98 13 -3 13 C-2.45144652 8.428721 -1.58255197 4.32564205 0 0 Z " fill="#FCFCFB" transform="translate(48,28)"/>
<path d="M0 0 C1.27351308 2.54702616 0.80191925 3.4282945 0.0625 6.125 C-0.13214844 6.84945312 -0.32679687 7.57390625 -0.52734375 8.3203125 C-0.76130859 9.15175781 -0.76130859 9.15175781 -1 10 C-4 9 -4 9 -5 7.25 C-5 5 -5 5 -2.5625 2.25 C-1.716875 1.5075 -0.87125 0.765 0 0 Z " fill="#FBFBFA" transform="translate(73,27)"/>
<path d="M0 0 C0.99 1.32 1.98 2.64 3 4 C2.71125 4.53625 2.4225 5.0725 2.125 5.625 C0.83288192 8.35280484 -0.08558592 11.12612718 -1 14 C-2.65428755 9.22094708 -1.27568846 4.73827141 0 0 Z " fill="#DEDDD4" transform="translate(47,23)"/>
<path d="M0 0 C3.625 -0.1875 3.625 -0.1875 7 0 C7 0.33 7 0.66 7 1 C6.21625 1.0825 5.4325 1.165 4.625 1.25 C3.75875 1.4975 2.8925 1.745 2 2 C1.30062468 3.31647119 0.63270867 4.65022151 0 6 C-2.125 6.75 -2.125 6.75 -4 7 C-2.79618552 4.50638429 -1.54571278 2.31856917 0 0 Z " fill="#B8B6AD" transform="translate(25,0)"/>
<path d="M0 0 C0.33 0 0.66 0 1 0 C1.49230769 6.4 1.49230769 6.4 -1 9.4375 C-1.99 10.2109375 -1.99 10.2109375 -3 11 C-3.33 10.34 -3.66 9.68 -4 9 C-3.02616054 7.31791365 -2.02304948 5.65261839 -1 4 C-0.30420546 1.80869466 -0.30420546 1.80869466 0 0 Z " fill="#F1F1EE" transform="translate(34,7)"/>
</svg>
